# xmcd
#
# Track frame offsets:
# 150
# 14220
# 30476
# 46975
# 63934
# 83750
# 103607
# 120069
# 139495
# 161397
# 182565
# 203962
# 221266
#
# Disc length: 3281 seconds
#
#
# Revision: 0
# Processed by: cddbd v1.5.2PL0 Copyright (c) Steve Scherf et al.
# Submitted via: FreeRIP 2.941 
#
DISCID=a80ccf0d
DTITLE=EVANESCENCE - EVANESCENCE THE OPEN DOOR
DYEAR=1900
DGENRE=ROCK
TTITLE0=SWEET SACRIFICE
TTITLE1=CALL ME WHEN YOU'RE SOBER
TTITLE2=WEIGHT OF THE WORLD
TTITLE3=LITHIUM
TTITLE4=CLOUD NINE
TTITLE5=SNOW WHITE QUEEN
TTITLE6=LACRYMOSA
TTITLE7=LIKE YOU
TTITLE8=LOSE CONTROL
TTITLE9=THE ONLY ONE
TTITLE10=YOUR STAR
TTITLE11=ALL THAT I'M LIVING FOR
TTITLE12=GOOD ENOUGH
EXTD=
EXTT0=
EXTT1=
EXTT2=
EXTT3=
EXTT4=
EXTT5=
EXTT6=
EXTT7=
EXTT8=
EXTT9=
EXTT10=
EXTT11=
EXTT12=
PLAYORDER=
